<svg width="32" height="32" viewBox="0 0 32 32" fill="none" xmlns="http://www.w3.org/2000/svg">
<path fill-rule="evenodd" clip-rule="evenodd" d="M8.22857 2.0141V29.9859C8.0736 29.8998 7.92011 29.8111 7.76809 29.7199C7.61608 29.6287 7.46562 29.5349 7.31671 29.4387C7.1678 29.3425 7.02053 29.2439 6.87488 29.1428C6.72927 29.0417 6.58536 28.9381 6.44315 28.8322C6.30098 28.7264 6.16061 28.6181 6.02203 28.5076C5.88343 28.397 5.74671 28.2842 5.61189 28.1691C5.47703 28.0539 5.34414 27.9366 5.21321 27.8172C5.08229 27.6976 4.95337 27.576 4.82647 27.4522C4.69957 27.3283 4.57476 27.2025 4.45206 27.0745C4.32935 26.9466 4.2088 26.8166 4.09041 26.6846C3.97202 26.5527 3.85585 26.4188 3.74192 26.2829C3.62798 26.1471 3.51633 26.0094 3.40696 25.8699C3.2976 25.7304 3.19059 25.5891 3.08592 25.446C2.98126 25.3029 2.879 25.1581 2.77915 25.0116C2.6793 24.8651 2.58191 24.717 2.48698 24.5673C2.39205 24.4175 2.29963 24.2663 2.20973 24.1135C2.11983 23.9607 2.0325 23.8064 1.94773 23.6507C1.86295 23.495 1.78079 23.3379 1.70124 23.1795C1.62169 23.0211 1.54479 22.8614 1.47055 22.7004C1.3963 22.5394 1.32476 22.3772 1.2559 22.2138C1.18706 22.0504 1.12094 21.886 1.05755 21.7204C0.99417 21.5548 0.933554 21.3883 0.875707 21.2207C0.817858 21.0531 0.76281 20.8846 0.710565 20.7152C0.658319 20.5458 0.608902 20.3756 0.562313 20.2045C0.515727 20.0334 0.471995 19.8616 0.431118 19.6891C0.390241 19.5166 0.352241 19.3435 0.317119 19.1697C0.281997 18.996 0.249773 18.8217 0.220445 18.6468C0.191117 18.472 0.164703 18.2967 0.141202 18.121C0.117701 17.9452 0.0971258 17.7692 0.079477 17.5928C0.0618286 17.4164 0.0471161 17.2397 0.0353395 17.0628C0.0235629 16.8859 0.0147288 16.7089 0.0088373 16.5317C0.00294577 16.3545 0 16.1773 0 16C0 15.8227 0.00294577 15.6454 0.0088373 15.4683C0.0147288 15.2911 0.0235629 15.114 0.0353395 14.9372C0.0471161 14.7603 0.0618286 14.5836 0.079477 14.4072C0.0971258 14.2308 0.117701 14.0547 0.141202 13.879C0.164703 13.7033 0.191117 13.528 0.220445 13.3532C0.249773 13.1783 0.281997 13.004 0.317119 12.8302C0.352241 12.6565 0.390241 12.4833 0.431118 12.3108C0.471995 12.1383 0.515727 11.9665 0.562313 11.7955C0.608902 11.6244 0.658319 11.4542 0.710565 11.2848C0.76281 11.1153 0.817858 10.9469 0.875707 10.7793C0.933554 10.6117 0.99417 10.4451 1.05755 10.2796C1.12094 10.114 1.18706 9.94951 1.2559 9.78616C1.32476 9.62277 1.3963 9.4606 1.47055 9.29962C1.54479 9.13862 1.62169 8.9789 1.70124 8.82049C1.78079 8.66204 1.86295 8.50497 1.94773 8.34927C2.0325 8.19356 2.11983 8.03931 2.20973 7.8865C2.29963 7.73369 2.39205 7.58242 2.48698 7.43269C2.58191 7.28297 2.6793 7.13485 2.77915 6.98835C2.879 6.84188 2.98126 6.6971 3.08592 6.554C3.19059 6.41091 3.2976 6.26959 3.40696 6.13006C3.51633 5.99052 3.62798 5.85284 3.74192 5.71702C3.85585 5.58119 3.97202 5.4473 4.09041 5.31534C4.2088 5.18338 4.32935 5.05342 4.45205 4.92546C4.57476 4.7975 4.69957 4.67162 4.82647 4.54782C4.95337 4.42401 5.08229 4.30235 5.21321 4.18283C5.34414 4.0633 5.47703 3.94599 5.61189 3.83088C5.74671 3.71578 5.88343 3.60295 6.02203 3.49239C6.16061 3.38183 6.30098 3.2736 6.44315 3.16771C6.58536 3.06182 6.72927 2.95832 6.87488 2.85721C7.02053 2.7561 7.1678 2.65744 7.31671 2.56123C7.46562 2.46501 7.61608 2.3713 7.76809 2.28008C7.92011 2.18887 8.0736 2.10021 8.22857 2.0141Z" fill="#243AEA"/>
<path fill-rule="evenodd" clip-rule="evenodd" d="M11.8857 31.4619V27.0777C11.8857 25.0579 13.5231 23.4205 15.5429 23.4205H20.1143V31.4619C19.4432 31.6405 18.7633 31.7749 18.0746 31.8649C17.386 31.955 16.6945 32 16 32C15.3055 32 14.614 31.955 13.9253 31.8649C13.2367 31.7749 12.5568 31.6405 11.8857 31.4619Z" fill="#70E2D1"/>
<path fill-rule="evenodd" clip-rule="evenodd" d="M20.1143 0.538025V16.1062C20.1143 18.126 18.4769 19.7634 16.4571 19.7634H11.8857V0.538025C12.5568 0.359444 13.2367 0.225128 13.9253 0.135077C14.614 0.0450255 15.3055 0 16 0C16.6945 0 17.386 0.0450255 18.0746 0.135077C18.7633 0.225128 19.4432 0.359444 20.1143 0.538025Z" fill="#243AEA"/>
<path fill-rule="evenodd" clip-rule="evenodd" d="M23.7714 29.9859C23.9264 29.8997 24.0799 29.8111 24.2319 29.7199C24.3839 29.6287 24.5344 29.535 24.6833 29.4387C24.8322 29.3425 24.9795 29.2439 25.1251 29.1428C25.2707 29.0416 25.4146 28.9381 25.5568 28.8323C25.699 28.7264 25.8394 28.6181 25.978 28.5076C26.1166 28.397 26.2533 28.2842 26.3881 28.1691C26.523 28.054 26.6559 27.9367 26.7868 27.8171C26.9177 27.6976 27.0467 27.576 27.1735 27.4522C27.3004 27.3283 27.4252 27.2025 27.548 27.0745C27.6707 26.9465 27.7912 26.8166 27.9096 26.6846C28.028 26.5527 28.1442 26.4188 28.2581 26.283C28.372 26.1471 28.4837 26.0094 28.5931 25.8699C28.7024 25.7304 28.8094 25.5891 28.9141 25.446C29.0188 25.3029 29.121 25.1581 29.2209 25.0116C29.3207 24.8651 29.4181 24.717 29.513 24.5673C29.6079 24.4175 29.7004 24.2663 29.7903 24.1135C29.8802 23.9607 29.9675 23.8064 30.0523 23.6507C30.1371 23.495 30.2192 23.3379 30.2988 23.1795C30.3783 23.0211 30.4552 22.8613 30.5295 22.7003C30.6037 22.5394 30.6753 22.3772 30.7441 22.2138C30.8129 22.0505 30.8791 21.886 30.9425 21.7204C31.0058 21.5548 31.0665 21.3883 31.1243 21.2207C31.1821 21.0531 31.2372 20.8846 31.2894 20.7152C31.3417 20.5458 31.3911 20.3755 31.4377 20.2045C31.4843 20.0334 31.528 19.8617 31.5689 19.6891C31.6098 19.5166 31.6478 19.3435 31.6829 19.1697C31.718 18.996 31.7502 18.8217 31.7796 18.6468C31.8089 18.472 31.8353 18.2967 31.8588 18.121C31.8823 17.9452 31.9029 17.7692 31.9205 17.5928C31.9382 17.4164 31.9529 17.2397 31.9647 17.0628C31.9764 16.8859 31.9853 16.7089 31.9912 16.5317C31.9971 16.3545 32 16.1773 32 16C32 15.8235 31.9971 15.647 31.9912 15.4706C31.9854 15.2942 31.9767 15.118 31.965 14.9418C31.9533 14.7657 31.9387 14.5898 31.9212 14.4142C31.9038 14.2386 31.8833 14.0633 31.86 13.8884C31.8368 13.7134 31.8106 13.5389 31.7815 13.3648C31.7524 13.1907 31.7205 13.0171 31.6857 12.8441C31.6509 12.6711 31.6132 12.4986 31.5727 12.3269C31.5322 12.1551 31.4888 11.984 31.4426 11.8137C31.3964 11.6433 31.3475 11.4738 31.2957 11.305C31.2439 11.1363 31.1893 10.9685 31.132 10.8016C31.0746 10.6346 31.0145 10.4687 30.9517 10.3038C30.8888 10.1388 30.8233 9.97498 30.7551 9.8122C30.6868 9.64943 30.6159 9.48783 30.5422 9.3274C30.4686 9.16698 30.3924 9.00782 30.3135 8.84992C30.2346 8.69202 30.1532 8.53548 30.0691 8.3803C29.9851 8.22508 29.8985 8.07131 29.8093 7.91899C29.7202 7.76664 29.6286 7.61582 29.5344 7.46651C29.4403 7.31721 29.3437 7.16951 29.2447 7.0234C29.1457 6.8773 29.0442 6.73288 28.9404 6.59013C28.8366 6.44739 28.7305 6.30639 28.622 6.16715C28.5136 6.02792 28.4028 5.89051 28.2898 5.75494C28.1768 5.61937 28.0616 5.4857 27.9441 5.35394C27.8267 5.22218 27.7071 5.0924 27.5854 4.9646C27.4636 4.8368 27.3398 4.71105 27.2139 4.58734C27.088 4.46364 26.9601 4.34205 26.8302 4.22258C26.7003 4.10311 26.5684 3.98582 26.4346 3.87071C26.3008 3.7556 26.1651 3.64274 26.0276 3.53213C25.8901 3.42151 25.7507 3.3132 25.6096 3.20719C25.4685 3.10118 25.3257 2.99754 25.1811 2.89626C25.0366 2.79498 24.8904 2.69612 24.7425 2.59968C24.5947 2.50324 24.4453 2.40927 24.2944 2.31777C24.1435 2.22627 23.9911 2.1373 23.8372 2.05084C23.7948 2.15624 23.7714 2.27137 23.7714 2.39195V29.9859Z" fill="#243AEA"/>
</svg>
