<svg width="32" height="32" viewBox="0 0 32 32" fill="none" xmlns="http://www.w3.org/2000/svg">
<path fill-rule="evenodd" clip-rule="evenodd" d="M20.5714 31.3329C19.8296 31.5541 19.0757 31.7205 18.3098 31.8323C17.5439 31.9441 16.7739 31.9999 15.9998 31.9999C15.2258 31.9999 14.4559 31.9441 13.69 31.8323C12.9241 31.7206 12.1703 31.5542 11.4286 31.333V22.9916C11.4286 20.3927 13.5355 18.2858 16.1344 18.2858H20.5714V31.3329Z" fill="#70E2D1"/>
<path fill-rule="evenodd" clip-rule="evenodd" d="M11.4286 0.666904C12.1703 0.445773 12.9241 0.27934 13.69 0.167604C14.4559 0.0558679 15.2258 0 15.9998 0C16.7739 0 17.5439 0.0558778 18.3098 0.167633C19.0757 0.279389 19.8296 0.445852 20.5714 0.667021V9.00842C20.5714 11.6074 18.4645 13.7143 15.8655 13.7143H11.4286V0.666904Z" fill="#243AEA"/>
<path fill-rule="evenodd" clip-rule="evenodd" d="M32 16.0408C31.9996 16.2066 31.9966 16.3723 31.991 16.538C31.9854 16.7036 31.9773 16.8691 31.9666 17.0345C31.9558 17.1999 31.9425 17.3651 31.9267 17.5301C31.9109 17.6951 31.8924 17.8598 31.8715 18.0242C31.8505 18.1886 31.827 18.3527 31.8009 18.5164C31.7748 18.68 31.7462 18.8433 31.7151 19.0061C31.684 19.1689 31.6503 19.3311 31.6141 19.4929C31.5779 19.6546 31.5392 19.8158 31.498 19.9763C31.4569 20.1369 31.4132 20.2968 31.367 20.4559C31.3208 20.6151 31.2722 20.7736 31.2212 20.9312C31.17 21.0889 31.1165 21.2458 31.0606 21.4018C31.0046 21.5578 30.9462 21.7129 30.8855 21.8671C30.8247 22.0213 30.7615 22.1745 30.696 22.3268C30.6304 22.479 30.5625 22.6302 30.4923 22.7803C30.4221 22.9304 30.3495 23.0794 30.2747 23.2273C30.1998 23.3752 30.1226 23.5219 30.0432 23.6673C29.9638 23.8128 29.8821 23.957 29.7982 24.0999C29.7143 24.2429 29.6281 24.3845 29.5398 24.5247C29.4515 24.665 29.3611 24.8039 29.2684 24.9413C29.1758 25.0788 29.0811 25.2148 28.9842 25.3493C28.8874 25.4838 28.7885 25.6167 28.6875 25.7482C28.5865 25.8796 28.4835 26.0094 28.3785 26.1376C28.2734 26.2659 28.1665 26.3925 28.0575 26.5174C27.9485 26.6423 27.8377 26.7654 27.7249 26.8869C27.6121 27.0084 27.4975 27.1281 27.381 27.2459C27.2645 27.3638 27.1462 27.4799 27.0261 27.5941C26.906 27.7083 26.7841 27.8207 26.6605 27.9311C26.5369 28.0415 26.4116 28.15 26.2847 28.2566C26.1577 28.3631 26.0291 28.4676 25.8989 28.5702C25.7687 28.6727 25.6369 28.7732 25.5035 28.8717C25.3702 28.9701 25.2354 29.0665 25.099 29.1607C24.9627 29.255 24.8249 29.3471 24.6857 29.4371V2.56262C24.8249 2.6526 24.9627 2.74472 25.099 2.83897C25.2354 2.93323 25.3702 3.02959 25.5035 3.12804C25.6369 3.22648 25.7687 3.32698 25.8989 3.42952C26.0291 3.53207 26.1577 3.63661 26.2847 3.74315C26.4116 3.84969 26.5369 3.95817 26.6605 4.06861C26.7841 4.17904 26.906 4.29137 27.0261 4.40559C27.1462 4.51981 27.2645 4.63587 27.381 4.75377C27.4975 4.87167 27.6121 4.99134 27.7249 5.1128C27.8377 5.23426 27.9485 5.35745 28.0575 5.48235C28.1665 5.60726 28.2734 5.73383 28.3785 5.86205C28.4835 5.99029 28.5865 6.12012 28.6875 6.25155C28.7885 6.38298 28.8874 6.51595 28.9842 6.65045C29.0811 6.78496 29.1758 6.92094 29.2684 7.05839C29.3611 7.19584 29.4515 7.33469 29.5398 7.47496C29.6281 7.61522 29.7143 7.75682 29.7982 7.89976C29.8821 8.04269 29.9638 8.18689 30.0432 8.33237C30.1226 8.47784 30.1998 8.62453 30.2747 8.77242C30.3495 8.92028 30.4221 9.06926 30.4923 9.21938C30.5625 9.36953 30.6304 9.52071 30.696 9.67293C30.7615 9.82518 30.8247 9.97841 30.8855 10.1326C30.9462 10.2868 31.0046 10.4419 31.0606 10.5979C31.1165 10.7539 31.17 10.9108 31.2212 11.0685C31.2722 11.2261 31.3208 11.3846 31.367 11.5438C31.4132 11.7029 31.4569 11.8628 31.498 12.0234C31.5392 12.1839 31.5779 12.3451 31.6141 12.5068C31.6503 12.6686 31.684 12.8308 31.7151 12.9936C31.7462 13.1564 31.7748 13.3197 31.8009 13.4833C31.827 13.647 31.8505 13.8111 31.8715 13.9755C31.8924 14.1399 31.9109 14.3046 31.9267 14.4696C31.9425 14.6346 31.9558 14.7998 31.9666 14.9652C31.9773 15.1306 31.9854 15.2961 31.991 15.4618C31.9966 15.6274 31.9996 15.7931 32 15.9589V16.0408Z" fill="#243AEA"/>
<path fill-rule="evenodd" clip-rule="evenodd" d="M7.31431 2.56299C7.17473 2.6532 7.03661 2.74556 6.89995 2.84007C6.76326 2.93458 6.62808 3.0312 6.4944 3.12992C6.36075 3.22865 6.22866 3.32943 6.09812 3.43227C5.96758 3.53511 5.83868 3.63995 5.71144 3.74681C5.58416 3.85366 5.45859 3.96248 5.33473 4.07324C5.21087 4.18401 5.08875 4.29668 4.96838 4.41126C4.84803 4.52583 4.72949 4.64225 4.61274 4.76051C4.496 4.87878 4.38114 4.99884 4.26815 5.12068C4.15516 5.24253 4.04409 5.3661 3.93495 5.49141C3.8258 5.61671 3.71864 5.74369 3.61345 5.87233C3.50827 6.00098 3.40511 6.13123 3.30398 6.26309C3.20286 6.39495 3.10381 6.52835 3.00683 6.66329C2.90986 6.79824 2.81501 6.93466 2.72229 7.07257C2.62957 7.21048 2.53902 7.34978 2.45064 7.49049C2.36226 7.63123 2.27609 7.7733 2.19214 7.9167C2.10819 8.06011 2.02648 8.20478 1.94704 8.35073C1.86759 8.49667 1.79044 8.64382 1.71558 8.79218C1.64072 8.94055 1.56818 9.09003 1.49798 9.24065C1.42778 9.39127 1.35994 9.54295 1.29446 9.69567C1.22898 9.84839 1.1659 10.0021 1.10521 10.1568C1.04452 10.3115 0.986254 10.4671 0.930414 10.6236C0.874574 10.7801 0.821186 10.9375 0.770249 11.0956C0.71931 11.2538 0.670847 11.4127 0.624861 11.5724C0.578875 11.7321 0.535388 11.8925 0.4944 12.0535C0.453409 12.2145 0.414937 12.3762 0.378984 12.5384C0.34303 12.7007 0.309612 12.8634 0.27873 13.0267C0.247848 13.19 0.219516 13.3537 0.193735 13.5179C0.167954 13.682 0.144736 13.8465 0.12408 14.0114C0.103426 14.1763 0.0853438 14.3415 0.0698348 14.5069C0.0543261 14.6724 0.0413979 14.838 0.0310503 15.0039C0.0207027 15.1697 0.0129408 15.3357 0.00776447 15.5018C0.00258816 15.6679 0 15.834 0 16.0002C0 16.1664 0.00258816 16.3325 0.00776447 16.4986C0.0129408 16.6647 0.0207027 16.8306 0.0310503 16.9965C0.0413979 17.1623 0.0543261 17.328 0.0698348 17.4935C0.0853438 17.6589 0.103426 17.8241 0.12408 17.9889C0.144736 18.1538 0.167954 18.3184 0.193735 18.4825C0.219516 18.6467 0.247848 18.8104 0.27873 18.9737C0.309612 19.137 0.34303 19.2997 0.378984 19.462C0.414937 19.6242 0.453409 19.7858 0.4944 19.9469C0.535388 20.1079 0.578875 20.2683 0.624861 20.4279C0.670847 20.5876 0.71931 20.7466 0.770249 20.9047C0.821186 21.0629 0.874574 21.2203 0.930414 21.3767C0.986254 21.5333 1.04452 21.6889 1.10521 21.8436C1.1659 21.9983 1.22898 22.152 1.29446 22.3047C1.35994 22.4574 1.42778 22.6091 1.49798 22.7597C1.56818 22.9103 1.64072 23.0598 1.71558 23.2082C1.79044 23.3565 1.86759 23.5037 1.94704 23.6496C2.02648 23.7956 2.10819 23.9403 2.19214 24.0837C2.27609 24.2271 2.36226 24.3692 2.45064 24.5099C2.53902 24.6506 2.62957 24.7899 2.72229 24.9278C2.81501 25.0657 2.90986 25.2021 3.00683 25.3371C3.1038 25.472 3.20285 25.6054 3.30398 25.7373C3.40511 25.8691 3.50827 25.9994 3.61345 26.128C3.71864 26.2567 3.8258 26.3837 3.93495 26.509C4.04409 26.6343 4.15516 26.7579 4.26815 26.8797C4.38114 27.0015 4.496 27.1216 4.61274 27.2399C4.72949 27.3581 4.84803 27.4746 4.96838 27.5891C5.08875 27.7037 5.21087 27.8164 5.33473 27.9271C5.45859 28.0379 5.58416 28.1467 5.71144 28.2535C5.83868 28.3604 5.96758 28.4653 6.09812 28.5681C6.22866 28.6709 6.36075 28.7717 6.4944 28.8704C6.62808 28.9692 6.76326 29.0658 6.89995 29.1603C7.03661 29.2548 7.17473 29.3472 7.31431 29.4374V2.56299Z" fill="#243AEA"/>
</svg>
