<svg width="101" height="32" viewBox="0 0 101 32" fill="none" xmlns="http://www.w3.org/2000/svg">
<g clip-path="url(#clip0_18_87)">
<path fill-rule="evenodd" clip-rule="evenodd" d="M20.5714 31.3329C19.8296 31.5541 19.0757 31.7205 18.3098 31.8323C17.5439 31.9441 16.7739 31.9999 15.9998 31.9999C15.2258 31.9999 14.4559 31.9441 13.69 31.8323C12.9241 31.7206 12.1703 31.5542 11.4286 31.333V22.9916C11.4286 20.3927 13.5355 18.2858 16.1344 18.2858H20.5714V31.3329Z" fill="#70E2D1"/>
<path fill-rule="evenodd" clip-rule="evenodd" d="M11.4286 0.666904C12.1703 0.445773 12.9241 0.27934 13.69 0.167604C14.4559 0.0558679 15.2258 0 15.9998 0C16.7739 0 17.5439 0.0558778 18.3098 0.167633C19.0757 0.279389 19.8296 0.445852 20.5714 0.667021V9.00842C20.5714 11.6074 18.4645 13.7143 15.8655 13.7143H11.4286V0.666904Z" fill="#243AEA"/>
<path fill-rule="evenodd" clip-rule="evenodd" d="M32 16.0408C31.9996 16.2066 31.9966 16.3723 31.991 16.538C31.9854 16.7036 31.9773 16.8691 31.9665 17.0345C31.9558 17.1999 31.9425 17.3651 31.9267 17.5301C31.9108 17.6951 31.8924 17.8598 31.8714 18.0242C31.8505 18.1886 31.827 18.3527 31.8009 18.5164C31.7748 18.68 31.7462 18.8433 31.7151 19.0061C31.6839 19.1689 31.6503 19.3311 31.6141 19.4929C31.5779 19.6546 31.5392 19.8158 31.498 19.9763C31.4568 20.1369 31.4132 20.2968 31.367 20.4559C31.3208 20.6151 31.2722 20.7736 31.2211 20.9312C31.17 21.0889 31.1165 21.2458 31.0606 21.4018C31.0046 21.5578 30.9462 21.7129 30.8855 21.8671C30.8247 22.0213 30.7615 22.1745 30.696 22.3268C30.6304 22.479 30.5625 22.6302 30.4923 22.7803C30.422 22.9304 30.3495 23.0794 30.2746 23.2273C30.1998 23.3752 30.1226 23.5219 30.0432 23.6673C29.9638 23.8128 29.8821 23.957 29.7982 24.0999C29.7142 24.2429 29.6281 24.3845 29.5398 24.5247C29.4515 24.665 29.361 24.8039 29.2684 24.9413C29.1758 25.0788 29.0811 25.2148 28.9842 25.3493C28.8874 25.4838 28.7884 25.6167 28.6875 25.7482C28.5865 25.8796 28.4835 26.0094 28.3784 26.1376C28.2734 26.2659 28.1664 26.3925 28.0575 26.5174C27.9485 26.6423 27.8377 26.7654 27.7249 26.8869C27.6121 27.0084 27.4975 27.1281 27.381 27.2459C27.2645 27.3638 27.1462 27.4799 27.0261 27.5941C26.9059 27.7083 26.7841 27.8207 26.6605 27.9311C26.5369 28.0415 26.4116 28.15 26.2846 28.2566C26.1577 28.3631 26.0291 28.4676 25.8989 28.5702C25.7686 28.6727 25.6369 28.7732 25.5035 28.8717C25.3702 28.9701 25.2353 29.0665 25.099 29.1607C24.9627 29.255 24.8249 29.3471 24.6857 29.4371V2.56262C24.8249 2.6526 24.9627 2.74472 25.099 2.83897C25.2353 2.93323 25.3702 3.02959 25.5035 3.12804C25.6369 3.22648 25.7686 3.32698 25.8989 3.42952C26.0291 3.53207 26.1577 3.63661 26.2846 3.74315C26.4116 3.84969 26.5369 3.95817 26.6605 4.06861C26.7841 4.17904 26.9059 4.29137 27.0261 4.40559C27.1462 4.51981 27.2645 4.63587 27.381 4.75377C27.4975 4.87167 27.6121 4.99134 27.7249 5.1128C27.8377 5.23426 27.9485 5.35745 28.0575 5.48235C28.1664 5.60726 28.2734 5.73383 28.3784 5.86205C28.4835 5.99029 28.5865 6.12012 28.6875 6.25155C28.7884 6.38298 28.8874 6.51595 28.9842 6.65045C29.0811 6.78496 29.1758 6.92094 29.2684 7.05839C29.361 7.19584 29.4515 7.33469 29.5398 7.47496C29.6281 7.61522 29.7142 7.75682 29.7982 7.89976C29.8821 8.04269 29.9638 8.18689 30.0432 8.33237C30.1226 8.47784 30.1998 8.62453 30.2746 8.77242C30.3495 8.92028 30.422 9.06926 30.4923 9.21938C30.5625 9.36953 30.6304 9.52071 30.696 9.67293C30.7615 9.82518 30.8247 9.97841 30.8855 10.1326C30.9462 10.2868 31.0046 10.4419 31.0606 10.5979C31.1165 10.7539 31.17 10.9108 31.2211 11.0685C31.2722 11.2261 31.3208 11.3846 31.367 11.5438C31.4132 11.7029 31.4568 11.8628 31.498 12.0234C31.5392 12.1839 31.5779 12.3451 31.6141 12.5068C31.6503 12.6686 31.6839 12.8308 31.7151 12.9936C31.7462 13.1564 31.7748 13.3197 31.8009 13.4833C31.827 13.647 31.8505 13.8111 31.8714 13.9755C31.8924 14.1399 31.9108 14.3046 31.9267 14.4696C31.9425 14.6346 31.9558 14.7998 31.9665 14.9652C31.9773 15.1306 31.9854 15.2961 31.991 15.4618C31.9966 15.6274 31.9996 15.7931 32 15.9589V16.0408Z" fill="#243AEA"/>
<path fill-rule="evenodd" clip-rule="evenodd" d="M7.31431 2.56299C7.17473 2.6532 7.03661 2.74556 6.89995 2.84007C6.76326 2.93458 6.62808 3.0312 6.4944 3.12992C6.36075 3.22865 6.22866 3.32943 6.09812 3.43227C5.96758 3.53511 5.83868 3.63995 5.71144 3.74681C5.58416 3.85366 5.45859 3.96248 5.33473 4.07324C5.21087 4.18401 5.08875 4.29668 4.96838 4.41126C4.84803 4.52583 4.72949 4.64225 4.61274 4.76051C4.496 4.87878 4.38114 4.99884 4.26815 5.12068C4.15516 5.24253 4.04409 5.3661 3.93495 5.49141C3.8258 5.61671 3.71864 5.74369 3.61345 5.87233C3.50827 6.00098 3.40511 6.13123 3.30398 6.26309C3.20286 6.39495 3.10381 6.52835 3.00683 6.66329C2.90986 6.79824 2.81501 6.93466 2.72229 7.07257C2.62957 7.21048 2.53902 7.34978 2.45064 7.49049C2.36226 7.63123 2.27609 7.7733 2.19214 7.9167C2.10819 8.06011 2.02648 8.20478 1.94704 8.35073C1.86759 8.49667 1.79044 8.64382 1.71558 8.79218C1.64072 8.94055 1.56818 9.09003 1.49798 9.24065C1.42778 9.39127 1.35994 9.54295 1.29446 9.69567C1.22898 9.84839 1.1659 10.0021 1.10521 10.1568C1.04452 10.3115 0.986254 10.4671 0.930414 10.6236C0.874574 10.7801 0.821186 10.9375 0.770249 11.0956C0.71931 11.2538 0.670847 11.4127 0.624861 11.5724C0.578875 11.7321 0.535388 11.8925 0.4944 12.0535C0.453409 12.2145 0.414937 12.3762 0.378984 12.5384C0.34303 12.7007 0.309612 12.8634 0.27873 13.0267C0.247848 13.19 0.219516 13.3537 0.193735 13.5179C0.167954 13.682 0.144736 13.8465 0.12408 14.0114C0.103426 14.1763 0.0853438 14.3415 0.0698348 14.5069C0.0543261 14.6724 0.0413979 14.838 0.0310503 15.0039C0.0207027 15.1697 0.0129408 15.3357 0.00776447 15.5018C0.00258816 15.6679 0 15.834 0 16.0002C0 16.1664 0.00258816 16.3325 0.00776447 16.4986C0.0129408 16.6647 0.0207027 16.8306 0.0310503 16.9965C0.0413979 17.1623 0.0543261 17.328 0.0698348 17.4935C0.0853438 17.6589 0.103426 17.8241 0.12408 17.9889C0.144736 18.1538 0.167954 18.3184 0.193735 18.4825C0.219516 18.6467 0.247848 18.8104 0.27873 18.9737C0.309612 19.137 0.34303 19.2997 0.378984 19.462C0.414937 19.6242 0.453409 19.7858 0.4944 19.9469C0.535388 20.1079 0.578875 20.2683 0.624861 20.4279C0.670847 20.5876 0.71931 20.7466 0.770249 20.9047C0.821186 21.0629 0.874574 21.2203 0.930414 21.3767C0.986254 21.5333 1.04452 21.6889 1.10521 21.8436C1.1659 21.9983 1.22898 22.152 1.29446 22.3047C1.35994 22.4574 1.42778 22.6091 1.49798 22.7597C1.56818 22.9103 1.64072 23.0598 1.71558 23.2082C1.79044 23.3565 1.86759 23.5037 1.94704 23.6496C2.02648 23.7956 2.10819 23.9403 2.19214 24.0837C2.27609 24.2271 2.36226 24.3692 2.45064 24.5099C2.53902 24.6506 2.62957 24.7899 2.72229 24.9278C2.81501 25.0657 2.90986 25.2021 3.00683 25.3371C3.1038 25.472 3.20285 25.6054 3.30398 25.7373C3.40511 25.8691 3.50827 25.9994 3.61345 26.128C3.71864 26.2567 3.8258 26.3837 3.93495 26.509C4.04409 26.6343 4.15516 26.7579 4.26815 26.8797C4.38114 27.0015 4.496 27.1216 4.61274 27.2399C4.72949 27.3581 4.84803 27.4746 4.96838 27.5891C5.08875 27.7037 5.21087 27.8164 5.33473 27.9271C5.45859 28.0379 5.58416 28.1467 5.71144 28.2535C5.83868 28.3604 5.96758 28.4653 6.09812 28.5681C6.22866 28.6709 6.36075 28.7717 6.4944 28.8704C6.62808 28.9692 6.76326 29.0658 6.89995 29.1603C7.03661 29.2548 7.17473 29.3472 7.31431 29.4374V2.56299Z" fill="#243AEA"/>
<path d="M48.9203 15.5764V18.3673H39.8368V15.5764H48.9203ZM40.8996 8.48535V25.8824H37.3143V8.48535H40.8996ZM51.4782 8.48535V25.8824H47.9048V8.48535H51.4782ZM53.8257 19.5536V19.2949C53.8257 18.3522 53.9611 17.4806 54.232 16.68C54.5028 15.8794 54.8985 15.1838 55.419 14.5931C55.9396 14.0023 56.5786 13.5416 57.3358 13.211C58.0932 12.8804 58.9597 12.7151 59.9353 12.7151C60.919 12.7151 61.7914 12.8804 62.5526 13.211C63.3138 13.5416 63.9554 14.0023 64.4773 14.5931C64.9991 15.1838 65.3955 15.8794 65.6663 16.68C65.9372 17.4806 66.0726 18.3522 66.0726 19.2949V19.5536C66.0726 20.491 65.9372 21.3593 65.6663 22.1586C65.3955 22.9578 64.9991 23.6541 64.4773 24.2475C63.9554 24.841 63.3164 25.3017 62.5604 25.6296C61.8045 25.9575 60.9374 26.1214 59.9592 26.1214C58.9809 26.1214 58.1104 25.9575 57.3477 25.6296C56.5851 25.3017 55.9429 24.841 55.421 24.2475C54.8991 23.6541 54.5028 22.9578 54.232 22.1586C53.9611 21.3593 53.8257 20.491 53.8257 19.5536ZM57.2667 19.2949V19.5536C57.2667 20.0908 57.3154 20.5942 57.4127 21.064C57.5102 21.5337 57.665 21.9458 57.8772 22.3003C58.0894 22.6546 58.3671 22.9317 58.7104 23.1315C59.0537 23.3311 59.47 23.4309 59.9592 23.4309C60.4404 23.4309 60.8506 23.3311 61.1899 23.1315C61.5292 22.9317 61.8043 22.6546 62.0153 22.3003C62.2263 21.9458 62.381 21.5337 62.4796 21.064C62.5783 20.5942 62.6277 20.0908 62.6277 19.5536V19.2949C62.6277 18.771 62.5783 18.2756 62.4796 17.8086C62.381 17.3416 62.2256 16.9275 62.0134 16.5665C61.8012 16.2053 61.5241 15.9215 61.1821 15.7151C60.8401 15.5088 60.4245 15.4056 59.9353 15.4056C59.454 15.4056 59.0437 15.5088 58.7045 15.7151C58.3652 15.9215 58.0894 16.2053 57.8772 16.5665C57.665 16.9275 57.5102 17.3416 57.4127 17.8086C57.3154 18.2756 57.2667 18.771 57.2667 19.2949ZM71.6324 15.7788V25.8824H68.1912V12.9541H71.435L71.6324 15.7788ZM75.5252 12.8662L75.4727 16.063C75.3058 16.0393 75.1042 16.0175 74.868 15.9974C74.6319 15.9774 74.4184 15.9674 74.2275 15.9674C73.7447 15.9674 73.3256 16.0295 72.9702 16.1537C72.615 16.2779 72.3195 16.4578 72.0838 16.6933C71.8481 16.9287 71.6714 17.218 71.5538 17.561C71.4363 17.9041 71.3726 18.2944 71.3626 18.7319L70.6683 18.5236C70.6683 17.6836 70.7514 16.9117 70.9175 16.2078C71.0837 15.5039 71.3273 14.8898 71.6485 14.3655C71.9697 13.8411 72.3656 13.435 72.8364 13.1471C73.3071 12.8591 73.8471 12.7151 74.4564 12.7151C74.6427 12.7151 74.8353 12.729 75.0343 12.7568C75.2334 12.7845 75.397 12.821 75.5252 12.8662ZM83.7418 22.9675V17.211C83.7418 16.7982 83.674 16.4418 83.5383 16.1417C83.4028 15.8416 83.194 15.6083 82.9118 15.4416C82.6296 15.275 82.2654 15.1917 81.8192 15.1917C81.4343 15.1917 81.1015 15.2576 80.821 15.3894C80.5404 15.5212 80.3245 15.7074 80.1732 15.9479C80.0218 16.1884 79.9462 16.4744 79.9462 16.8058H76.5052C76.5052 16.2521 76.634 15.728 76.8918 15.2335C77.1497 14.7389 77.5198 14.3023 78.0022 13.9238C78.4848 13.5453 79.0643 13.2493 79.7408 13.0357C80.4172 12.822 81.1727 12.7151 82.0072 12.7151C83.0066 12.7151 83.8964 12.8825 84.6767 13.2174C85.4569 13.5522 86.0725 14.0537 86.5233 14.7219C86.9738 15.3902 87.199 16.2278 87.199 17.2349V22.7629C87.199 23.4737 87.2437 24.0546 87.3332 24.5055C87.4223 24.9563 87.5506 25.3489 87.7181 25.6832V25.8824H84.2381C84.0725 25.5303 83.9485 25.0899 83.8658 24.5614C83.7832 24.0326 83.7418 23.5014 83.7418 22.9675ZM84.1972 18.0037L84.2211 19.9617H82.2944C81.8377 19.9617 81.4421 20.0129 81.1074 20.1152C80.7728 20.2175 80.4989 20.3615 80.2857 20.5472C80.0726 20.7328 79.9149 20.9493 79.8125 21.1967C79.7101 21.4442 79.659 21.7158 79.659 22.0115C79.659 22.3043 79.7276 22.5681 79.8649 22.8029C80.0023 23.0376 80.1982 23.2215 80.4525 23.3547C80.7069 23.4878 81.0051 23.5543 81.3471 23.5543C81.8676 23.5543 82.3179 23.4501 82.698 23.2416C83.0781 23.033 83.3743 22.7783 83.5865 22.4774C83.7989 22.1765 83.9089 21.8902 83.9166 21.6187L84.8202 23.0788C84.6941 23.4027 84.5224 23.7407 84.3051 24.0929C84.0879 24.4451 83.812 24.7741 83.4773 25.0798C83.1426 25.3855 82.739 25.6355 82.2664 25.83C81.7939 26.0243 81.2369 26.1214 80.5953 26.1214C79.7731 26.1214 79.0306 25.9555 78.368 25.6238C77.7055 25.292 77.1808 24.8347 76.7942 24.2518C76.4075 23.6689 76.2141 23.0029 76.2141 22.2536C76.2141 21.5768 76.34 20.9749 76.5919 20.4479C76.8439 19.9208 77.2193 19.4759 77.7183 19.1134C78.2174 18.7508 78.8416 18.4753 79.5909 18.2867C80.3401 18.098 81.2081 18.0037 82.1949 18.0037H84.1972ZM93.5092 24.4228L96.936 12.9541H100.63L95.4357 27.8293C95.3219 28.1532 95.1713 28.5031 94.984 28.8789C94.797 29.2548 94.5468 29.6127 94.2334 29.9526C93.9197 30.2926 93.5255 30.5695 93.0508 30.7832C92.5761 30.997 91.9954 31.1039 91.3087 31.1039C90.9878 31.1039 90.723 31.0841 90.5143 31.0444C90.3054 31.0046 90.0588 30.95 89.7746 30.8805L89.7708 28.3513C89.8615 28.3539 89.955 28.3571 90.0513 28.361C90.1476 28.3648 90.237 28.3668 90.3195 28.3668C90.7728 28.3668 91.1437 28.3159 91.432 28.2141C91.7206 28.1124 91.9512 27.9554 92.1238 27.7432C92.2966 27.531 92.4384 27.2579 92.5492 26.9238L93.5092 24.4228ZM92.0833 12.9541L94.8903 22.319L95.3746 25.9605L93.0325 26.2224L88.3826 12.9541H92.0833Z" fill="#393E4C"/>
</g>
<defs>
<clipPath id="clip0_18_87">
<rect width="100.63" height="32" fill="white"/>
</clipPath>
</defs>
</svg>
